<svg width="80" height="80" viewBox="0 0 80 80" fill="none" xmlns="http://www.w3.org/2000/svg">
<rect width="80" height="80" rx="40" fill="white"/>
<path d="M62.7567 20C65.7708 20 67.9477 20.5233 69.2873 21.5699C70.6688 22.6164 71.3595 24.2282 71.3595 26.405C71.3595 29.5866 70.6478 32.203 69.2245 34.2543C67.843 36.3056 66.1476 37.5824 64.1382 38.0848L64.0754 38.4615C67.843 39.1732 69.7269 41.664 69.7269 45.9341C69.7269 49.7017 68.7012 52.8624 66.6499 55.416C64.5987 57.9696 61.7101 59.2465 57.9843 59.2465H36.5086L43.416 20H62.7567ZM55.8493 43.6107H51.1397L50.0094 50.0157H54.6562C55.7028 50.0157 56.4982 49.5971 57.0424 48.7598C57.5866 47.9225 57.8587 46.855 57.8587 45.5573C57.8587 44.2595 57.1889 43.6107 55.8493 43.6107ZM57.6075 28.6028H53.8399L52.7724 34.4427H56.4772C58.4029 34.4427 59.3658 33.0822 59.3658 30.3611C59.3658 29.1889 58.7797 28.6028 57.6075 28.6028ZM34.6248 59.0581L8 56.2323H35.1272L34.6248 59.0581ZM36.7598 46.9388L10.135 44.113H37.2622L36.7598 46.9388ZM37.8273 40.9105L11.2025 38.0848H38.3297L37.8273 40.9105ZM38.8948 34.8823L12.27 32.0565H39.3972L38.8948 34.8823ZM39.9623 28.854L13.3375 26.0283H40.4019L39.9623 28.854ZM35.6923 52.967L9.0675 50.1413H36.1947L35.6923 52.967ZM40.967 22.8257L14.405 20H41.4694L40.967 22.8257Z" fill="black"/>
</svg>
