<svg width="64" height="40" viewBox="0 0 64 40" fill="none" xmlns="http://www.w3.org/2000/svg">
<path d="M54.7567 0C57.7708 0 59.9477 0.523287 61.2873 1.56986C62.6688 2.61643 63.3595 4.22815 63.3595 6.40502C63.3595 9.5866 62.6478 12.203 61.2245 14.2543C59.843 16.3056 58.1476 17.5824 56.1382 18.0848L56.0754 18.4615C59.843 19.1732 61.7269 21.664 61.7269 25.9341C61.7269 29.7017 60.7012 32.8624 58.6499 35.416C56.5987 37.9696 53.7101 39.2465 49.9843 39.2465H28.5086L35.416 0H54.7567ZM47.8493 23.6107H43.1397L42.0094 30.0157H46.6562C47.7028 30.0157 48.4982 29.5971 49.0424 28.7598C49.5866 27.9225 49.8587 26.855 49.8587 25.5573C49.8587 24.2595 49.1889 23.6107 47.8493 23.6107ZM49.6075 8.60282H45.8399L44.7724 14.4427H48.4772C50.4029 14.4427 51.3658 13.0822 51.3658 10.3611C51.3658 9.1889 50.7797 8.60282 49.6075 8.60282ZM26.6248 39.0581L0 36.2323H27.1272L26.6248 39.0581ZM28.7598 26.9388L2.13501 24.113H29.2622L28.7598 26.9388ZM29.8273 20.9105L3.20251 18.0848H30.3297L29.8273 20.9105ZM30.8948 14.8823L4.27002 12.0565H31.3972L30.8948 14.8823ZM31.9623 8.854L5.33752 6.02825H32.4019L31.9623 8.854ZM27.6923 32.967L1.0675 30.1413H28.1947L27.6923 32.967ZM32.967 2.82574L6.40502 0H33.4694L32.967 2.82574Z" fill="#667A9B"/>
</svg>
